<svg xmlns="http://www.w3.org/2000/svg" width="400" height="500" viewBox="0 0 400 500">
  <!-- background -->
  <rect width="400" height="500" fill="#0d2137"/>
  <!-- subtle grid pattern -->
  <pattern id="grid" width="32" height="32" patternUnits="userSpaceOnUse">
    <path d="M32 0L0 0 0 32" fill="none" stroke="#4db8ff" stroke-width="0.3" opacity="0.15"/>
  </pattern>
  <rect width="400" height="500" fill="url(#grid)"/>
  <!-- glow circle behind product -->
  <radialGradient id="glow" cx="50%" cy="50%" r="40%">
    <stop offset="0%" stop-color="#4db8ff" stop-opacity="0.18"/>
    <stop offset="100%" stop-color="#4db8ff" stop-opacity="0"/>
  </radialGradient>
  <ellipse cx="200" cy="210" rx="160" ry="160" fill="url(#glow)"/>
  <!-- product illustration -->
  
      <ellipse cx="200" cy="200" rx="60" ry="90" fill="#4db8ff" opacity="0.85"/>
      <ellipse cx="200" cy="200" rx="40" ry="65" fill="white" opacity="0.9"/>
      <ellipse cx="200" cy="200" rx="18" ry="28" fill="#ffee55"/>
      <rect x="180" y="290" width="40" height="14" rx="7" fill="#4db8ff" opacity="0.6"/>
      <rect x="180" y="110" width="40" height="14" rx="7" fill="#4db8ff" opacity="0.6"/>
      <!-- light rays -->
      <line x1="200" y1="115" x2="200" y2="80" stroke="#ffee55" stroke-width="3" opacity="0.5"/>
      <line x1="220" y1="125" x2="240" y2="95"  stroke="#ffee55" stroke-width="2" opacity="0.4"/>
      <line x1="180" y1="125" x2="160" y2="95"  stroke="#ffee55" stroke-width="2" opacity="0.4"/>
    
  <!-- brand strip at bottom -->
  <rect x="0" y="430" width="400" height="70" fill="#4db8ff" opacity="0.1"/>
  <line x1="0" y1="430" x2="400" y2="430" stroke="#4db8ff" stroke-width="1" opacity="0.3"/>
  <text x="200" y="458" text-anchor="middle" font-family="Georgia,serif"
        font-size="15" fill="#4db8ff" font-weight="bold" opacity="0.95">Sauce Labs Bike Light</text>
  <text x="200" y="480" text-anchor="middle" font-family="sans-serif"
        font-size="11" fill="#4db8ff" opacity="0.5" letter-spacing="3">SAUCE LABS</text>
</svg>