<svg xmlns="http://www.w3.org/2000/svg" width="400" height="500" viewBox="0 0 400 500">
  <!-- background -->
  <rect width="400" height="500" fill="#1a0d2e"/>
  <!-- subtle grid pattern -->
  <pattern id="grid" width="32" height="32" patternUnits="userSpaceOnUse">
    <path d="M32 0L0 0 0 32" fill="none" stroke="#9b59b6" stroke-width="0.3" opacity="0.15"/>
  </pattern>
  <rect width="400" height="500" fill="url(#grid)"/>
  <!-- glow circle behind product -->
  <radialGradient id="glow" cx="50%" cy="50%" r="40%">
    <stop offset="0%" stop-color="#9b59b6" stop-opacity="0.18"/>
    <stop offset="100%" stop-color="#9b59b6" stop-opacity="0"/>
  </radialGradient>
  <ellipse cx="200" cy="210" rx="160" ry="160" fill="url(#glow)"/>
  <!-- product illustration -->
  
      <path d="M100,140 L155,110 L175,150 L160,155 L160,300 L240,300 L240,155 L225,150 L245,110 L300,140 L290,210 L265,205 L265,310 L135,310 L135,205 L110,210 Z"
            fill="#9b59b6" opacity="0.85"/>
      <!-- zipper -->
      <line x1="200" y1="155" x2="200" y2="300" stroke="white" stroke-width="3" opacity="0.5"/>
      <rect x="192" y="175" width="16" height="10" rx="3" fill="white" opacity="0.7"/>
      <!-- collar -->
      <path d="M175,150 Q200,175 225,150" fill="none" stroke="white" stroke-width="4" opacity="0.6"/>
    
  <!-- brand strip at bottom -->
  <rect x="0" y="430" width="400" height="70" fill="#9b59b6" opacity="0.1"/>
  <line x1="0" y1="430" x2="400" y2="430" stroke="#9b59b6" stroke-width="1" opacity="0.3"/>
  <text x="200" y="458" text-anchor="middle" font-family="Georgia,serif"
        font-size="15" fill="#9b59b6" font-weight="bold" opacity="0.95">Fleece Jacket</text>
  <text x="200" y="480" text-anchor="middle" font-family="sans-serif"
        font-size="11" fill="#9b59b6" opacity="0.5" letter-spacing="3">SAUCE LABS</text>
</svg>