<svg xmlns="http://www.w3.org/2000/svg" width="400" height="500" viewBox="0 0 400 500">
  <!-- background -->
  <rect width="400" height="500" fill="#2d0a0a"/>
  <!-- subtle grid pattern -->
  <pattern id="grid" width="32" height="32" patternUnits="userSpaceOnUse">
    <path d="M32 0L0 0 0 32" fill="none" stroke="#e74c3c" stroke-width="0.3" opacity="0.15"/>
  </pattern>
  <rect width="400" height="500" fill="url(#grid)"/>
  <!-- glow circle behind product -->
  <radialGradient id="glow" cx="50%" cy="50%" r="40%">
    <stop offset="0%" stop-color="#e74c3c" stop-opacity="0.18"/>
    <stop offset="100%" stop-color="#e74c3c" stop-opacity="0"/>
  </radialGradient>
  <ellipse cx="200" cy="210" rx="160" ry="160" fill="url(#glow)"/>
  <!-- product illustration -->
  
      <path d="M130,120 L175,105 L200,130 L225,105 L270,120 L255,175 L230,165 L230,220
               Q230,260 215,280 Q200,295 185,280 Q170,260 170,220
               L170,165 L145,175 Z"
            fill="#e74c3c" opacity="0.9"/>
      <!-- snaps -->
      <circle cx="185" cy="290" r="5" fill="white" opacity="0.8"/>
      <circle cx="200" cy="295" r="5" fill="white" opacity="0.8"/>
      <circle cx="215" cy="290" r="5" fill="white" opacity="0.8"/>
      <!-- collar -->
      <path d="M178,118 Q200,140 222,118" fill="none" stroke="white" stroke-width="3" opacity="0.6"/>
    
  <!-- brand strip at bottom -->
  <rect x="0" y="430" width="400" height="70" fill="#e74c3c" opacity="0.1"/>
  <line x1="0" y1="430" x2="400" y2="430" stroke="#e74c3c" stroke-width="1" opacity="0.3"/>
  <text x="200" y="458" text-anchor="middle" font-family="Georgia,serif"
        font-size="15" fill="#e74c3c" font-weight="bold" opacity="0.95">Sauce Labs Onesie</text>
  <text x="200" y="480" text-anchor="middle" font-family="sans-serif"
        font-size="11" fill="#e74c3c" opacity="0.5" letter-spacing="3">SAUCE LABS</text>
</svg>