<svg xmlns="http://www.w3.org/2000/svg" width="400" height="500" viewBox="0 0 400 500">
  <!-- background -->
  <rect width="400" height="500" fill="#0d1f0d"/>
  <!-- subtle grid pattern -->
  <pattern id="grid" width="32" height="32" patternUnits="userSpaceOnUse">
    <path d="M32 0L0 0 0 32" fill="none" stroke="#27ae60" stroke-width="0.3" opacity="0.15"/>
  </pattern>
  <rect width="400" height="500" fill="url(#grid)"/>
  <!-- glow circle behind product -->
  <radialGradient id="glow" cx="50%" cy="50%" r="40%">
    <stop offset="0%" stop-color="#27ae60" stop-opacity="0.18"/>
    <stop offset="100%" stop-color="#27ae60" stop-opacity="0"/>
  </radialGradient>
  <ellipse cx="200" cy="210" rx="160" ry="160" fill="url(#glow)"/>
  <!-- product illustration -->
  
      <path d="M110,140 L155,115 L175,150 L160,158 L160,295 L240,295 L240,158 L225,150 L245,115 L290,140 L275,185 L248,178 L248,305 L152,305 L152,178 L125,185 Z"
            fill="#27ae60" opacity="0.85"/>
      <!-- text on shirt -->
      <text x="200" y="225" text-anchor="middle" font-family="monospace" font-size="15"
            fill="white" opacity="0.95" font-weight="bold">test.all</text>
      <text x="200" y="245" text-anchor="middle" font-family="monospace" font-size="15"
            fill="white" opacity="0.95" font-weight="bold">TheThings()</text>
    
  <!-- brand strip at bottom -->
  <rect x="0" y="430" width="400" height="70" fill="#27ae60" opacity="0.1"/>
  <line x1="0" y1="430" x2="400" y2="430" stroke="#27ae60" stroke-width="1" opacity="0.3"/>
  <text x="200" y="458" text-anchor="middle" font-family="Georgia,serif"
        font-size="15" fill="#27ae60" font-weight="bold" opacity="0.95">Test.allTheThings()</text>
  <text x="200" y="480" text-anchor="middle" font-family="sans-serif"
        font-size="11" fill="#27ae60" opacity="0.5" letter-spacing="3">SAUCE LABS</text>
</svg>